# xmcd CD database file
#
# Track frame offsets:
#	150
#	13391
#	31839
#	48532
#	66333
#	87679
#	107807
#	123005
#	141988
#	162706
#	179677
#	198235
#	213581
#	231751
#	246986
#	263384
#	281480
#	297177
#	312116
#
# Disc length: 4409 seconds
#
# Revision: 0
# Processed by: cddbd v1.4PL0 Copyright (c) Steve Scherf et al.
# Submitted via: CDex 1.50
#
DISCID=24113713
DTITLE=Shania Twain - Up! (Country - Green)
DYEAR=2002
DGENRE=Country
TTITLE0=Shania Twain - Up!
TTITLE1=Shania Twain - I'm Gonna Getcha Good!
TTITLE2=Shania Twain - She's Not Just Another Pretty Face
TTITLE3=Shania Twain - Juanita
TTITLE4=Shania Twain - Forever And For Always
TTITLE5=Shania Twain - Ain't No Particular Way
TTITLE6=Shania Twain - It Only Hurts When I'm Breathing
TTITLE7=Shania Twain - Nah!
TTITLE8=Shania Twain - (Wanna Get To Know You) That Good!
TTITLE9=Shania Twain - C'est La Vie
TTITLE10=Shania Twain - I'm Jealous
TTITLE11=Shania Twain - Ka-Ching!
TTITLE12=Shania Twain - Thank You Baby (For Makin' Someday Come So Soon)
TTITLE13=Shania Twain - Waiter! Bring Me Water!
TTITLE14=Shania Twain - What A Way To Wanna Be!
TTITLE15=Shania Twain - I Ain't Goin' Down
TTITLE16=Shania Twain - I'm Not In The Mood (To Say No!)
TTITLE17=Shania Twain - In My Car (I'll Be The Driver)
TTITLE18=Shania Twain - When You Kiss Me
EXTD=YEAR: 2002
EXTT0=
EXTT1=
EXTT2=
EXTT3=
EXTT4=
EXTT5=
EXTT6=
EXTT7=
EXTT8=
EXTT9=
EXTT10=
EXTT11=
EXTT12=
EXTT13=
EXTT14=
EXTT15=
EXTT16=
EXTT17=
EXTT18=
PLAYORDER=
